<mxfile host="app.diagrams.net" modified="2023-03-31T06:37:40.458Z" agent="Mozilla/5.0 (X11; Linux x86_64) AppleWebKit/537.36 (KHTML, like Gecko) Chrome/108.0.0.0 Safari/537.36" etag="gSDm5ybtjkKybuKNB8Nc" version="21.1.1" type="device">
  <diagram name="Page-1" id="NzGzm9XwnIMG6OtGEK2s">
    <mxGraphModel dx="1434" dy="737" grid="1" gridSize="10" guides="1" tooltips="1" connect="1" arrows="1" fold="1" page="1" pageScale="1" pageWidth="827" pageHeight="1169" math="0" shadow="0">
      <root>
        <mxCell id="0" />
        <mxCell id="1" parent="0" />
        <mxCell id="Ouy1Do0PE5KxQqLOneqQ-8" value="" style="edgeStyle=orthogonalEdgeStyle;rounded=0;orthogonalLoop=1;jettySize=auto;html=1;" parent="1" source="Ouy1Do0PE5KxQqLOneqQ-1" target="Ouy1Do0PE5KxQqLOneqQ-7" edge="1">
          <mxGeometry relative="1" as="geometry" />
        </mxCell>
        <mxCell id="Ouy1Do0PE5KxQqLOneqQ-1" value="&lt;font style=&quot;font-size: 17px;&quot;&gt;Movie&lt;/font&gt;" style="rounded=0;whiteSpace=wrap;html=1;" parent="1" vertex="1">
          <mxGeometry x="50" y="200" width="120" height="60" as="geometry" />
        </mxCell>
        <mxCell id="Ouy1Do0PE5KxQqLOneqQ-2" value="&lt;font style=&quot;font-size: 15px;&quot;&gt;Customer&lt;/font&gt;" style="rounded=0;whiteSpace=wrap;html=1;" parent="1" vertex="1">
          <mxGeometry x="610" y="190" width="120" height="60" as="geometry" />
        </mxCell>
        <mxCell id="Ouy1Do0PE5KxQqLOneqQ-3" value="&lt;font style=&quot;font-size: 15px;&quot;&gt;Movie TIcket&lt;/font&gt;" style="rounded=0;whiteSpace=wrap;html=1;" parent="1" vertex="1">
          <mxGeometry x="330" y="360" width="120" height="60" as="geometry" />
        </mxCell>
        <mxCell id="Ouy1Do0PE5KxQqLOneqQ-4" value="Booking" style="rhombus;whiteSpace=wrap;html=1;" parent="1" vertex="1">
          <mxGeometry x="630" y="350" width="80" height="80" as="geometry" />
        </mxCell>
        <mxCell id="Ouy1Do0PE5KxQqLOneqQ-5" value="" style="endArrow=none;html=1;rounded=0;entryX=0.5;entryY=1;entryDx=0;entryDy=0;" parent="1" source="Ouy1Do0PE5KxQqLOneqQ-4" target="Ouy1Do0PE5KxQqLOneqQ-2" edge="1">
          <mxGeometry width="50" height="50" relative="1" as="geometry">
            <mxPoint x="380" y="400" as="sourcePoint" />
            <mxPoint x="430" y="350" as="targetPoint" />
          </mxGeometry>
        </mxCell>
        <mxCell id="Ouy1Do0PE5KxQqLOneqQ-6" value="" style="endArrow=classic;html=1;rounded=0;exitX=0;exitY=0.5;exitDx=0;exitDy=0;" parent="1" source="Ouy1Do0PE5KxQqLOneqQ-4" target="Ouy1Do0PE5KxQqLOneqQ-3" edge="1">
          <mxGeometry width="50" height="50" relative="1" as="geometry">
            <mxPoint x="280" y="360" as="sourcePoint" />
            <mxPoint x="330" y="310" as="targetPoint" />
          </mxGeometry>
        </mxCell>
        <mxCell id="Ouy1Do0PE5KxQqLOneqQ-7" value="Watch" style="rhombus;whiteSpace=wrap;html=1;rounded=0;" parent="1" vertex="1">
          <mxGeometry x="70" y="350" width="80" height="80" as="geometry" />
        </mxCell>
        <mxCell id="Ouy1Do0PE5KxQqLOneqQ-13" value="" style="endArrow=none;html=1;rounded=0;exitX=1;exitY=0.5;exitDx=0;exitDy=0;entryX=0;entryY=0.5;entryDx=0;entryDy=0;" parent="1" source="Ouy1Do0PE5KxQqLOneqQ-7" target="Ouy1Do0PE5KxQqLOneqQ-3" edge="1">
          <mxGeometry width="50" height="50" relative="1" as="geometry">
            <mxPoint x="380" y="390" as="sourcePoint" />
            <mxPoint x="430" y="340" as="targetPoint" />
          </mxGeometry>
        </mxCell>
        <mxCell id="Ouy1Do0PE5KxQqLOneqQ-14" value="mobile_nomber" style="ellipse;whiteSpace=wrap;html=1;" parent="1" vertex="1">
          <mxGeometry x="610" y="40" width="100" height="40" as="geometry" />
        </mxCell>
        <mxCell id="Ouy1Do0PE5KxQqLOneqQ-15" value="cust_name" style="ellipse;whiteSpace=wrap;html=1;" parent="1" vertex="1">
          <mxGeometry x="550" y="80" width="100" height="40" as="geometry" />
        </mxCell>
        <mxCell id="Ouy1Do0PE5KxQqLOneqQ-16" value="cus_id" style="ellipse;whiteSpace=wrap;html=1;" parent="1" vertex="1">
          <mxGeometry x="520" y="130" width="100" height="40" as="geometry" />
        </mxCell>
        <mxCell id="Ouy1Do0PE5KxQqLOneqQ-18" value="ticker_id" style="ellipse;whiteSpace=wrap;html=1;" parent="1" vertex="1">
          <mxGeometry x="220" y="310" width="100" height="40" as="geometry" />
        </mxCell>
        <mxCell id="Ouy1Do0PE5KxQqLOneqQ-19" value="screen_no" style="ellipse;whiteSpace=wrap;html=1;" parent="1" vertex="1">
          <mxGeometry x="470" y="320" width="100" height="40" as="geometry" />
        </mxCell>
        <mxCell id="Ouy1Do0PE5KxQqLOneqQ-20" value="seat_no" style="ellipse;whiteSpace=wrap;html=1;" parent="1" vertex="1">
          <mxGeometry x="250" y="250" width="100" height="40" as="geometry" />
        </mxCell>
        <mxCell id="Ouy1Do0PE5KxQqLOneqQ-21" value="mov_name" style="ellipse;whiteSpace=wrap;html=1;" parent="1" vertex="1">
          <mxGeometry x="20" y="70" width="80" height="30" as="geometry" />
        </mxCell>
        <mxCell id="Ouy1Do0PE5KxQqLOneqQ-22" value="mov_hour" style="ellipse;whiteSpace=wrap;html=1;" parent="1" vertex="1">
          <mxGeometry x="120" y="65" width="70" height="35" as="geometry" />
        </mxCell>
        <mxCell id="Ouy1Do0PE5KxQqLOneqQ-23" value="mov_id" style="ellipse;whiteSpace=wrap;html=1;" parent="1" vertex="1">
          <mxGeometry x="10" y="120" width="70" height="30" as="geometry" />
        </mxCell>
        <mxCell id="Ouy1Do0PE5KxQqLOneqQ-25" value="" style="endArrow=none;html=1;rounded=0;exitX=0.458;exitY=-0.027;exitDx=0;exitDy=0;entryX=0.5;entryY=1;entryDx=0;entryDy=0;exitPerimeter=0;" parent="1" source="Ouy1Do0PE5KxQqLOneqQ-2" target="Ouy1Do0PE5KxQqLOneqQ-15" edge="1">
          <mxGeometry width="50" height="50" relative="1" as="geometry">
            <mxPoint x="560" y="200" as="sourcePoint" />
            <mxPoint x="610" y="150" as="targetPoint" />
          </mxGeometry>
        </mxCell>
        <mxCell id="Ouy1Do0PE5KxQqLOneqQ-26" value="" style="endArrow=none;html=1;rounded=0;entryX=0.5;entryY=1;entryDx=0;entryDy=0;exitX=0;exitY=0.5;exitDx=0;exitDy=0;" parent="1" source="Ouy1Do0PE5KxQqLOneqQ-2" target="Ouy1Do0PE5KxQqLOneqQ-16" edge="1">
          <mxGeometry width="50" height="50" relative="1" as="geometry">
            <mxPoint x="400" y="410" as="sourcePoint" />
            <mxPoint x="450" y="360" as="targetPoint" />
          </mxGeometry>
        </mxCell>
        <mxCell id="Ouy1Do0PE5KxQqLOneqQ-27" value="" style="endArrow=none;html=1;rounded=0;entryX=0.5;entryY=1;entryDx=0;entryDy=0;exitX=0.5;exitY=0;exitDx=0;exitDy=0;exitPerimeter=0;" parent="1" source="Ouy1Do0PE5KxQqLOneqQ-3" target="Ouy1Do0PE5KxQqLOneqQ-20" edge="1">
          <mxGeometry width="50" height="50" relative="1" as="geometry">
            <mxPoint x="400" y="360" as="sourcePoint" />
            <mxPoint x="460" y="370" as="targetPoint" />
          </mxGeometry>
        </mxCell>
        <mxCell id="Ouy1Do0PE5KxQqLOneqQ-28" value="" style="endArrow=none;html=1;rounded=0;entryX=0.5;entryY=1;entryDx=0;entryDy=0;exitX=1;exitY=0.167;exitDx=0;exitDy=0;exitPerimeter=0;" parent="1" source="Ouy1Do0PE5KxQqLOneqQ-3" target="Ouy1Do0PE5KxQqLOneqQ-19" edge="1">
          <mxGeometry width="50" height="50" relative="1" as="geometry">
            <mxPoint x="420" y="430" as="sourcePoint" />
            <mxPoint x="470" y="380" as="targetPoint" />
          </mxGeometry>
        </mxCell>
        <mxCell id="Ouy1Do0PE5KxQqLOneqQ-29" value="" style="endArrow=none;html=1;rounded=0;entryX=1;entryY=1;entryDx=0;entryDy=0;exitX=0;exitY=0;exitDx=0;exitDy=0;" parent="1" source="Ouy1Do0PE5KxQqLOneqQ-3" target="Ouy1Do0PE5KxQqLOneqQ-18" edge="1">
          <mxGeometry width="50" height="50" relative="1" as="geometry">
            <mxPoint x="430" y="440" as="sourcePoint" />
            <mxPoint x="480" y="390" as="targetPoint" />
          </mxGeometry>
        </mxCell>
        <mxCell id="Ouy1Do0PE5KxQqLOneqQ-30" value="" style="endArrow=none;html=1;rounded=0;entryX=0.59;entryY=1;entryDx=0;entryDy=0;entryPerimeter=0;exitX=0.583;exitY=0;exitDx=0;exitDy=0;exitPerimeter=0;" parent="1" source="Ouy1Do0PE5KxQqLOneqQ-1" target="Ouy1Do0PE5KxQqLOneqQ-21" edge="1">
          <mxGeometry width="50" height="50" relative="1" as="geometry">
            <mxPoint x="440" y="450" as="sourcePoint" />
            <mxPoint x="490" y="400" as="targetPoint" />
          </mxGeometry>
        </mxCell>
        <mxCell id="Ouy1Do0PE5KxQqLOneqQ-31" value="" style="endArrow=none;html=1;rounded=0;entryX=0.456;entryY=0.997;entryDx=0;entryDy=0;exitX=0.75;exitY=0;exitDx=0;exitDy=0;entryPerimeter=0;" parent="1" source="Ouy1Do0PE5KxQqLOneqQ-1" target="Ouy1Do0PE5KxQqLOneqQ-22" edge="1">
          <mxGeometry width="50" height="50" relative="1" as="geometry">
            <mxPoint x="450" y="460" as="sourcePoint" />
            <mxPoint x="500" y="410" as="targetPoint" />
          </mxGeometry>
        </mxCell>
        <mxCell id="Ouy1Do0PE5KxQqLOneqQ-32" value="" style="endArrow=none;html=1;rounded=0;exitX=0.872;exitY=0.013;exitDx=0;exitDy=0;exitPerimeter=0;entryX=0.5;entryY=1;entryDx=0;entryDy=0;" parent="1" source="Ouy1Do0PE5KxQqLOneqQ-2" target="Ouy1Do0PE5KxQqLOneqQ-14" edge="1">
          <mxGeometry width="50" height="50" relative="1" as="geometry">
            <mxPoint x="600" y="170" as="sourcePoint" />
            <mxPoint x="650" y="120" as="targetPoint" />
          </mxGeometry>
        </mxCell>
        <mxCell id="Ouy1Do0PE5KxQqLOneqQ-35" value="" style="endArrow=none;html=1;rounded=0;entryX=0.5;entryY=1;entryDx=0;entryDy=0;exitX=0.25;exitY=0;exitDx=0;exitDy=0;" parent="1" source="Ouy1Do0PE5KxQqLOneqQ-1" target="Ouy1Do0PE5KxQqLOneqQ-23" edge="1">
          <mxGeometry width="50" height="50" relative="1" as="geometry">
            <mxPoint x="180" y="240" as="sourcePoint" />
            <mxPoint x="225" y="214" as="targetPoint" />
          </mxGeometry>
        </mxCell>
        <mxCell id="Ouy1Do0PE5KxQqLOneqQ-37" value="mov_type" style="ellipse;whiteSpace=wrap;html=1;" parent="1" vertex="1">
          <mxGeometry x="200" y="100" width="80" height="30" as="geometry" />
        </mxCell>
        <mxCell id="Ouy1Do0PE5KxQqLOneqQ-38" value="" style="endArrow=none;html=1;rounded=0;exitX=0.75;exitY=0;exitDx=0;exitDy=0;entryX=0.364;entryY=0.959;entryDx=0;entryDy=0;entryPerimeter=0;" parent="1" source="Ouy1Do0PE5KxQqLOneqQ-1" target="Ouy1Do0PE5KxQqLOneqQ-37" edge="1">
          <mxGeometry width="50" height="50" relative="1" as="geometry">
            <mxPoint x="210" y="260" as="sourcePoint" />
            <mxPoint x="260" y="210" as="targetPoint" />
          </mxGeometry>
        </mxCell>
        <mxCell id="nQI8tN9OcetSk6KV4V9D-1" value="mobile_nomber" style="ellipse;whiteSpace=wrap;html=1;" vertex="1" parent="1">
          <mxGeometry x="710" y="49" width="100" height="40" as="geometry" />
        </mxCell>
        <mxCell id="nQI8tN9OcetSk6KV4V9D-2" value="" style="endArrow=none;html=1;rounded=0;exitX=1;exitY=0;exitDx=0;exitDy=0;entryX=0.5;entryY=1;entryDx=0;entryDy=0;" edge="1" parent="1" target="nQI8tN9OcetSk6KV4V9D-1" source="Ouy1Do0PE5KxQqLOneqQ-2">
          <mxGeometry width="50" height="50" relative="1" as="geometry">
            <mxPoint x="815" y="200" as="sourcePoint" />
            <mxPoint x="750" y="129" as="targetPoint" />
          </mxGeometry>
        </mxCell>
        <mxCell id="nQI8tN9OcetSk6KV4V9D-3" value="movie_time" style="ellipse;whiteSpace=wrap;html=1;" vertex="1" parent="1">
          <mxGeometry x="320" y="210" width="100" height="40" as="geometry" />
        </mxCell>
        <mxCell id="nQI8tN9OcetSk6KV4V9D-4" value="" style="endArrow=none;html=1;rounded=0;entryX=0.5;entryY=1;entryDx=0;entryDy=0;exitX=0.6;exitY=-0.017;exitDx=0;exitDy=0;exitPerimeter=0;" edge="1" parent="1" target="nQI8tN9OcetSk6KV4V9D-3" source="Ouy1Do0PE5KxQqLOneqQ-3">
          <mxGeometry width="50" height="50" relative="1" as="geometry">
            <mxPoint x="400" y="370" as="sourcePoint" />
            <mxPoint x="470" y="380" as="targetPoint" />
          </mxGeometry>
        </mxCell>
        <mxCell id="nQI8tN9OcetSk6KV4V9D-5" value="price" style="ellipse;whiteSpace=wrap;html=1;" vertex="1" parent="1">
          <mxGeometry x="420" y="190" width="100" height="40" as="geometry" />
        </mxCell>
        <mxCell id="nQI8tN9OcetSk6KV4V9D-6" value="" style="endArrow=none;html=1;rounded=0;entryX=0.5;entryY=1;entryDx=0;entryDy=0;exitX=0.75;exitY=0;exitDx=0;exitDy=0;" edge="1" parent="1" target="nQI8tN9OcetSk6KV4V9D-5" source="Ouy1Do0PE5KxQqLOneqQ-3">
          <mxGeometry width="50" height="50" relative="1" as="geometry">
            <mxPoint x="492" y="369" as="sourcePoint" />
            <mxPoint x="560" y="390" as="targetPoint" />
          </mxGeometry>
        </mxCell>
        <mxCell id="nQI8tN9OcetSk6KV4V9D-8" value="hall_name" style="ellipse;whiteSpace=wrap;html=1;" vertex="1" parent="1">
          <mxGeometry x="450" y="240" width="100" height="40" as="geometry" />
        </mxCell>
        <mxCell id="nQI8tN9OcetSk6KV4V9D-9" value="" style="endArrow=none;html=1;rounded=0;entryX=0.5;entryY=1;entryDx=0;entryDy=0;exitX=1;exitY=0;exitDx=0;exitDy=0;" edge="1" parent="1" target="nQI8tN9OcetSk6KV4V9D-8" source="Ouy1Do0PE5KxQqLOneqQ-3">
          <mxGeometry width="50" height="50" relative="1" as="geometry">
            <mxPoint x="500" y="390" as="sourcePoint" />
            <mxPoint x="640" y="420" as="targetPoint" />
          </mxGeometry>
        </mxCell>
      </root>
    </mxGraphModel>
  </diagram>
</mxfile>
